<svg width="70" height="70" viewBox="0 0 70 70" fill="none" xmlns="http://www.w3.org/2000/svg">
<rect width="70" height="70" rx="35" fill="#B55649"/>
<path d="M44.75 23.5H42.25V22.25C42.25 21.9185 42.1183 21.6005 41.8839 21.3661C41.6495 21.1317 41.3315 21 41 21C40.6685 21 40.3505 21.1317 40.1161 21.3661C39.8817 21.6005 39.75 21.9185 39.75 22.25V23.5H36V22.25C36 21.9185 35.8683 21.6005 35.6339 21.3661C35.3995 21.1317 35.0815 21 34.75 21C34.4185 21 34.1005 21.1317 33.8661 21.3661C33.6317 21.6005 33.5 21.9185 33.5 22.25V23.5H29.75V22.25C29.75 21.9185 29.6183 21.6005 29.3839 21.3661C29.1495 21.1317 28.8315 21 28.5 21C28.1685 21 27.8505 21.1317 27.6161 21.3661C27.3817 21.6005 27.25 21.9185 27.25 22.25V23.5H24.75C23.7554 23.5 22.8016 23.8951 22.0983 24.5983C21.3951 25.3016 21 26.2554 21 27.25V44.75C21 45.7446 21.3951 46.6984 22.0983 47.4017C22.8016 48.1049 23.7554 48.5 24.75 48.5H44.75C45.7446 48.5 46.6984 48.1049 47.4017 47.4017C48.1049 46.6984 48.5 45.7446 48.5 44.75V27.25C48.5 26.2554 48.1049 25.3016 47.4017 24.5983C46.6984 23.8951 45.7446 23.5 44.75 23.5ZM23.5 27.25C23.5 26.9185 23.6317 26.6005 23.8661 26.3661C24.1005 26.1317 24.4185 26 24.75 26H27.25V27.25C27.25 27.5815 27.3817 27.8995 27.6161 28.1339C27.8505 28.3683 28.1685 28.5 28.5 28.5C28.8315 28.5 29.1495 28.3683 29.3839 28.1339C29.6183 27.8995 29.75 27.5815 29.75 27.25V26H33.5V27.25C33.5 27.5815 33.6317 27.8995 33.8661 28.1339C34.1005 28.3683 34.4185 28.5 34.75 28.5C35.0815 28.5 35.3995 28.3683 35.6339 28.1339C35.8683 27.8995 36 27.5815 36 27.25V26H39.75V27.25C39.75 27.5815 39.8817 27.8995 40.1161 28.1339C40.3505 28.3683 40.6685 28.5 41 28.5C41.3315 28.5 41.6495 28.3683 41.8839 28.1339C42.1183 27.8995 42.25 27.5815 42.25 27.25V26H44.75C45.0815 26 45.3995 26.1317 45.6339 26.3661C45.8683 26.6005 46 26.9185 46 27.25V31H23.5V27.25ZM46 44.75C46 45.0815 45.8683 45.3995 45.6339 45.6339C45.3995 45.8683 45.0815 46 44.75 46H24.75C24.4185 46 24.1005 45.8683 23.8661 45.6339C23.6317 45.3995 23.5 45.0815 23.5 44.75V33.5H46V44.75Z" fill="white"/>
</svg>
