<svg width="70" height="70" viewBox="0 0 70 70" fill="none" xmlns="http://www.w3.org/2000/svg">
<rect width="70" height="70" rx="35" fill="#4967B5"/>
<path fill-rule="evenodd" clip-rule="evenodd" d="M32.9288 53.5H23.75C21.6788 53.5 20 51.8213 20 49.75V39.3363C20 37.5238 21.2962 35.9713 23.0787 35.6475C25.7212 35.1663 30.2775 34.3375 32.855 33.87C34.2737 33.6112 35.7263 33.6112 37.145 33.87C39.7225 34.3375 44.2788 35.1663 46.9213 35.6475C48.7038 35.9713 50 37.5238 50 39.3363C50 42.0625 50 46.8325 50 49.75C50 51.8213 48.3212 53.5 46.25 53.5H32.9288ZM44.785 37.8L44.79 37.8063C45.0088 38.1338 45.06 38.545 44.9287 38.9162L44.0462 41.4162C43.9312 41.7425 43.685 42.0075 43.3675 42.1463L41.7075 42.87L42.3675 44.1912C42.5525 44.56 42.5425 44.9962 42.3425 45.3575L39.2075 51H46.25C46.94 51 47.5 50.44 47.5 49.75C47.5 46.8325 47.5 42.0625 47.5 39.3363C47.5 38.7325 47.0675 38.215 46.4738 38.1062L44.785 37.8ZM41.3663 37.1775L36.6975 36.3288C35.575 36.125 34.425 36.125 33.3025 36.3288L28.6337 37.1775L27.6363 38.6738L28.13 40.0713L30.5 41.1037C30.8138 41.2412 31.0575 41.5012 31.175 41.8237C31.2925 42.1462 31.2712 42.5025 31.1175 42.8088L30.1625 44.7188L33.6525 51H36.3475L39.8375 44.7188L38.8825 42.8088C38.7288 42.5025 38.7075 42.1462 38.825 41.8237C38.9425 41.5012 39.1862 41.2412 39.5 41.1037L41.87 40.0713L42.3638 38.6738L41.3663 37.1775ZM25.215 37.8L23.5262 38.1062C22.9325 38.215 22.5 38.7325 22.5 39.3363V49.75C22.5 50.44 23.06 51 23.75 51H30.7925L27.6575 45.3575C27.4575 44.9962 27.4475 44.56 27.6325 44.1912L28.2925 42.87L26.6325 42.1463C26.315 42.0075 26.0688 41.7425 25.9538 41.4162L25.0712 38.9162C24.94 38.545 24.9912 38.1338 25.21 37.8063L25.215 37.8ZM43.75 44.75V47.25C43.75 47.94 44.31 48.5 45 48.5C45.69 48.5 46.25 47.94 46.25 47.25V44.75C46.25 44.06 45.69 43.5 45 43.5C44.31 43.5 43.75 44.06 43.75 44.75ZM35 16C30.5163 16 26.875 19.6413 26.875 24.125C26.875 28.6087 30.5163 32.25 35 32.25C39.4837 32.25 43.125 28.6087 43.125 24.125C43.125 19.6413 39.4837 16 35 16ZM35 18.5C38.105 18.5 40.625 21.02 40.625 24.125C40.625 27.23 38.105 29.75 35 29.75C31.895 29.75 29.375 27.23 29.375 24.125C29.375 21.02 31.895 18.5 35 18.5Z" fill="white"/>
</svg>
