<svg width="70" height="70" viewBox="0 0 70 70" fill="none" xmlns="http://www.w3.org/2000/svg">
<rect width="70" height="70" rx="35" fill="#49A2B5"/>
<path d="M35 25.741C32.2527 23.3276 28.6907 21.995 25 22C23.2467 22 21.5633 22.2938 20 22.8357V46.0947C21.606 45.5398 23.2969 45.2571 25 45.259C28.8417 45.259 32.3467 46.6741 35 49M35 25.741C37.7472 23.3275 41.3093 21.9949 45 22C46.7533 22 48.4367 22.2938 50 22.8357V46.0947C48.394 45.5398 46.7031 45.2571 45 45.259C41.3093 45.254 37.7473 46.5865 35 49M35 25.741V49" stroke="white" stroke-width="2" stroke-linecap="round" stroke-linejoin="round"/>
</svg>
