<svg width="70" height="70" viewBox="0 0 70 70" fill="none" xmlns="http://www.w3.org/2000/svg">
<rect width="70" height="70" rx="35" fill="#B54949"/>
<path d="M22.4317 31.09C21.9732 34.5993 21.7001 38.1303 21.6133 41.6683C26.4113 43.6726 31.0053 46.1339 35.3317 49.0183C39.6586 46.1338 44.2531 43.6725 49.0517 41.6683C48.9648 38.1303 48.6917 34.5993 48.2333 31.09M48.2333 31.09C49.6917 30.6 51.17 30.1467 52.6633 29.7333C47.2243 25.9204 41.4183 22.6598 35.3317 20C29.245 22.6604 23.439 25.9215 18 29.735C19.4888 30.146 20.966 30.5978 22.43 31.09C26.8778 32.5852 31.1932 34.4483 35.3317 36.66C39.4696 34.4484 43.7862 32.5853 48.2333 31.09ZM26.5817 39.1783C26.9132 39.1783 27.2311 39.0466 27.4656 38.8122C27.7 38.5778 27.8317 38.2599 27.8317 37.9283C27.8317 37.5968 27.7 37.2789 27.4656 37.0444C27.2311 36.81 26.9132 36.6783 26.5817 36.6783C26.2501 36.6783 25.9322 36.81 25.6978 37.0444C25.4634 37.2789 25.3317 37.5968 25.3317 37.9283C25.3317 38.2599 25.4634 38.5778 25.6978 38.8122C25.9322 39.0466 26.2501 39.1783 26.5817 39.1783ZM26.5817 39.1783V33.0533C29.4096 31.2956 32.3305 29.6921 35.3317 28.25M23.6533 47.5C24.5833 46.5723 25.3207 45.47 25.8233 44.2564C26.3258 43.0428 26.5836 41.7419 26.5817 40.4283V37.9283" stroke="white" stroke-width="2" stroke-linecap="round" stroke-linejoin="round"/>
</svg>
