<svg width="70" height="70" viewBox="0 0 70 70" fill="none" xmlns="http://www.w3.org/2000/svg">
<rect width="70" height="70" rx="35" fill="#49B58E"/>
<path d="M39.6162 46.192C40.9285 46.5635 42.2881 46.7513 43.6545 46.75C45.852 46.7531 48.0209 46.2645 49.9943 45.322C50.0527 43.9775 49.6599 42.6512 48.8756 41.544C48.0912 40.4368 46.9581 39.609 45.6479 39.1862C44.3376 38.7635 42.9218 38.7687 41.6149 39.2011C40.308 39.6335 39.1812 40.4695 38.4055 41.5825M39.6162 46.192V46.1875C39.6162 44.518 39.1762 42.9475 38.4055 41.5825M39.6162 46.192V46.351C36.6555 48.0896 33.2635 49.0057 29.8073 49C26.2213 49 22.8661 48.0325 20.0015 46.351L20 46.1875C19.9988 44.0642 20.7225 42.0009 22.0568 40.3229C23.3912 38.6449 25.2604 37.4476 27.3697 36.9199C29.4791 36.3921 31.7085 36.5639 33.7067 37.4081C35.7048 38.2523 37.358 39.721 38.4055 41.5825M35.001 27.0625C35.001 28.4052 34.454 29.6928 33.4803 30.6422C32.5066 31.5916 31.1859 32.125 29.8089 32.125C28.4318 32.125 27.1112 31.5916 26.1375 30.6422C25.1638 29.6928 24.6168 28.4052 24.6168 27.0625C24.6168 25.7198 25.1638 24.4322 26.1375 23.4828C27.1112 22.5334 28.4318 22 29.8089 22C31.1859 22 32.5066 22.5334 33.4803 23.4828C34.454 24.4322 35.001 25.7198 35.001 27.0625ZM47.6929 30.4375C47.6929 31.4818 47.2674 32.4833 46.5101 33.2217C45.7527 33.9601 44.7256 34.375 43.6545 34.375C42.5835 34.375 41.5564 33.9601 40.799 33.2217C40.0417 32.4833 39.6162 31.4818 39.6162 30.4375C39.6162 29.3932 40.0417 28.3917 40.799 27.6533C41.5564 26.9148 42.5835 26.5 43.6545 26.5C44.7256 26.5 45.7527 26.9148 46.5101 27.6533C47.2674 28.3917 47.6929 29.3932 47.6929 30.4375Z" stroke="white" stroke-width="2" stroke-linecap="round" stroke-linejoin="round"/>
</svg>
