<svg width="70" height="70" viewBox="0 0 70 70" fill="none" xmlns="http://www.w3.org/2000/svg">
<rect width="70" height="70" rx="35" fill="#49B58E"/>
<path fill-rule="evenodd" clip-rule="evenodd" d="M20 48.75C20 50.8213 21.6788 52.5 23.75 52.5H46.25C48.3212 52.5 50 50.8213 50 48.75C50 45.8325 50 41.0625 50 38.3363C50 36.5238 48.7038 34.9713 46.9213 34.6475C44.2788 34.1663 39.7225 33.3375 37.145 32.87C35.7263 32.6112 34.2737 32.6112 32.855 32.87C30.2775 33.3375 25.7212 34.1663 23.0787 34.6475C21.2962 34.9713 20 36.5238 20 38.3363V48.75ZM37.885 35.545L39.7612 42.6788C40.0075 43.615 39.6775 44.6088 38.92 45.2138C38.28 45.7238 37.2713 46.5288 36.5713 47.0888C35.6525 47.8213 34.3475 47.8213 33.4287 47.0888C32.7287 46.5288 31.72 45.7238 31.08 45.2138C30.3225 44.6088 29.9925 43.615 30.2388 42.6788L32.115 35.545L23.5262 37.1062C22.9325 37.215 22.5 37.7325 22.5 38.3363V48.75C22.5 49.44 23.06 50 23.75 50C28.98 50 41.02 50 46.25 50C46.94 50 47.5 49.44 47.5 48.75C47.5 45.8325 47.5 41.0625 47.5 38.3363C47.5 37.7325 47.0675 37.215 46.4738 37.1062L37.885 35.545ZM35.2038 35.1788C35.0675 35.175 34.9325 35.175 34.7962 35.1788L32.6663 43.2812L34.9887 45.1337C34.995 45.14 35.005 45.14 35.0113 45.1337L37.3337 43.2812L35.2038 35.1788ZM35 15C30.5163 15 26.875 18.6413 26.875 23.125C26.875 27.6087 30.5163 31.25 35 31.25C39.4837 31.25 43.125 27.6087 43.125 23.125C43.125 18.6413 39.4837 15 35 15ZM35 17.5C38.105 17.5 40.625 20.02 40.625 23.125C40.625 26.23 38.105 28.75 35 28.75C31.895 28.75 29.375 26.23 29.375 23.125C29.375 20.02 31.895 17.5 35 17.5Z" fill="white"/>
</svg>
